<?xml version="1.0" encoding="utf-8"?>
<!-- Generator: Adobe Illustrator 24.0.0, SVG Export Plug-In . SVG Version: 6.00 Build 0)  -->
<svg version="1.1" id="图层_1" xmlns="http://www.w3.org/2000/svg" xmlns:xlink="http://www.w3.org/1999/xlink" x="0px" y="0px"
	 viewBox="0 0 340 400" style="enable-background:new 0 0 340 400;" xml:space="preserve">
<style type="text/css">
	.st0{display:none;}
	.st1{display:inline;}
	.st2{fill:#FFFFFF;}
	.st3{fill:url(#SVGID_1_);}
	.st4{fill:url(#SVGID_2_);}
	.st5{display:inline;fill:url(#SVGID_3_);}
	.st6{fill:url(#SVGID_4_);}
	.st7{display:inline;fill:url(#SVGID_5_);}
	.st8{fill:url(#SVGID_6_);}
	.st9{display:inline;fill:url(#SVGID_7_);}
	.st10{fill:url(#SVGID_8_);}
	.st11{fill:url(#SVGID_9_);}
	.st12{fill:url(#SVGID_10_);}
	.st13{fill:url(#SVGID_11_);}
	.st14{fill:url(#SVGID_12_);}
	.st15{fill:url(#SVGID_13_);}
	.st16{display:inline;fill:url(#SVGID_14_);}
	.st17{display:inline;fill:url(#SVGID_15_);}
	.st18{display:inline;fill:url(#SVGID_16_);}
	.st19{display:inline;fill:url(#SVGID_17_);}
	.st20{fill:url(#SVGID_18_);}
	.st21{display:inline;fill:url(#SVGID_19_);}
	.st22{display:inline;fill:url(#SVGID_20_);}
	.st23{fill:url(#SVGID_21_);}
	.st24{fill:url(#SVGID_22_);}
	.st25{fill:url(#SVGID_23_);}
	.st26{fill:url(#SVGID_24_);}
	.st27{fill:#5D5D5D;}
	.st28{fill:#494949;}
	.st29{fill:#0CABB5;}
	.st30{fill:#4C4C4C;}
	.st31{display:none;fill:#FFFFFF;}
	.st32{display:inline;fill:#4F4F4F;}
	.st33{fill:#4F4F4F;}
	.st34{display:none;fill:url(#SVGID_25_);}
	.st35{display:inline;fill:#03525D;}
</style>
<g class="st0">
	<g class="st1">
		<g>
			<ellipse class="st2" cx="367.3" cy="163.5" rx="28.3" ry="29"/>
		</g>
		<g>
			<path class="st2" d="M424,220.1c0.9-0.2,1.5-1,1.5-1.9v-9.9c0-12.4-9.9-22.4-22.2-22.4h-10.2c-0.6,0-1.2,0.3-1.6,0.9
				c-5.1,7.6-13.8,12.6-23.6,12.6s-18.4-5-23.6-12.6c-0.4-0.5-1-0.9-1.6-0.9h-10.7c-12.3,0-22.2,10-22.2,22.4v66.8
				c0,12.4,9.9,22.4,22.2,22.4h71.3c2.9,0,5.6-0.6,8.1-1.6c1.5-0.6,1.7-2.6,0.3-3.4c-11.5-6.7-19.2-19.4-19.2-33.9
				C392.5,239.3,406.1,223.3,424,220.1z"/>
		</g>
	</g>
	<g class="st1">
		<path class="st2" d="M424.8,260c0-2.9,1-5.3,3-7.3s4.4-3,7.3-3c2.9,0,5.3,1,7.3,3c2,2,3,4.4,3,7.3c0,2.9-1,5.4-3,7.4
			c-2,2-4.4,3-7.3,3c-2.9,0-5.3-1-7.3-3C425.7,265.3,424.8,262.9,424.8,260L424.8,260z M410.6,268.1c0.4,1.2,0.9,2.4,1.5,3.6
			c0.4,0.8,0.3,1.8-0.3,2.5l-4.5,5.5c-0.7,0.9-0.7,2.3,0.2,3.1l4.7,4.7c0.8,0.8,2.2,0.9,3.1,0.2l5.5-4.5c0.7-0.6,1.7-0.7,2.5-0.3
			c1.2,0.6,2.4,1.1,3.7,1.5c0.8,0.3,1.4,1.1,1.5,1.9l0.8,7.1c0.1,1.2,1.1,2.1,2.3,2.1h6.9c1.2,0,2.2-0.9,2.3-2.1l0.8-7.1
			c0.1-0.9,0.7-1.6,1.5-1.9c1.2-0.4,2.4-1,3.7-1.6c0.8-0.4,1.8-0.3,2.5,0.3l5.5,4.5c0.9,0.8,2.3,0.7,3.1-0.1l4.8-4.8
			c0.8-0.8,0.9-2.2,0.2-3.1l-4.5-5.5c-0.6-0.7-0.7-1.7-0.3-2.5c0.6-1.2,1.1-2.4,1.5-3.6c0.3-0.8,1-1.4,1.9-1.5l7.1-0.8
			c1.2-0.1,2.1-1.1,2.1-2.3v-6.9c0-1.2-0.9-2.2-2.1-2.3l-7.1-0.8c-0.9-0.1-1.6-0.7-1.9-1.5c-0.4-1.2-1-2.4-1.5-3.6
			c-0.4-0.8-0.3-1.8,0.3-2.5l4.6-5.6c0.8-0.9,0.7-2.3-0.2-3.1l-4.8-4.8c-0.8-0.8-2.2-0.9-3.1-0.2l-5.5,4.6c-0.7,0.6-1.7,0.7-2.5,0.3
			c-1.2-0.6-2.4-1.1-3.6-1.6c-0.8-0.3-1.4-1-1.5-1.9l-0.8-7.1c-0.1-1.2-1.1-2.1-2.3-2.1h-6.9c-1.2,0-2.2,0.9-2.3,2.1l-0.8,7.1
			c-0.1,0.9-0.7,1.6-1.5,1.9c-1.2,0.4-2.4,1-3.6,1.5c-0.8,0.4-1.8,0.3-2.5-0.3l-5.5-4.5c-0.9-0.8-2.3-0.7-3.1,0.2l-4.8,4.8
			c-0.8,0.8-0.9,2.2-0.2,3.1l4.5,5.6c0.6,0.7,0.7,1.6,0.3,2.4c-0.6,1.2-1.1,2.4-1.5,3.6c-0.3,0.8-1.1,1.4-1.9,1.5l-7.1,0.8
			c-1.2,0.1-2.1,1.1-2.1,2.3v6.9c0,1.2,0.9,2.2,2.1,2.3l7.1,0.8C409.6,266.7,410.3,267.2,410.6,268.1z M410.2,266.7"/>
	</g>
	<g class="st1">
		<path d="M423.8,260c0-2.9,1-5.3,3-7.3s4.4-3,7.3-3c2.9,0,5.3,1,7.3,3c2,2,3,4.4,3,7.3s-1,5.4-3,7.4c-2,2-4.4,3-7.3,3
			c-2.9,0-5.3-1-7.3-3C424.7,265.3,423.8,262.9,423.8,260L423.8,260z M409.6,268.1c0.4,1.2,0.9,2.4,1.5,3.6c0.4,0.8,0.3,1.8-0.3,2.5
			l-4.5,5.5c-0.7,0.9-0.7,2.3,0.2,3.1l4.7,4.7c0.8,0.8,2.2,0.9,3.1,0.2l5.5-4.5c0.7-0.6,1.7-0.7,2.5-0.3c1.2,0.6,2.4,1.1,3.7,1.5
			c0.8,0.3,1.4,1.1,1.5,1.9l0.8,7.1c0.1,1.2,1.1,2.1,2.3,2.1h6.9c1.2,0,2.2-0.9,2.3-2.1l0.8-7.1c0.1-0.9,0.7-1.6,1.5-1.9
			c1.2-0.4,2.4-1,3.7-1.6c0.8-0.4,1.8-0.3,2.5,0.3l5.5,4.5c0.9,0.8,2.3,0.7,3.1-0.1l4.8-4.8c0.8-0.8,0.9-2.2,0.2-3.1l-4.5-5.5
			c-0.6-0.7-0.7-1.7-0.3-2.5c0.6-1.2,1.1-2.4,1.5-3.6c0.3-0.8,1-1.4,1.9-1.5l7.1-0.8c1.2-0.1,2.1-1.1,2.1-2.3v-6.9
			c0-1.2-0.9-2.2-2.1-2.3l-7.1-0.8c-0.9-0.1-1.6-0.7-1.9-1.5c-0.4-1.2-1-2.4-1.5-3.6c-0.4-0.8-0.3-1.8,0.3-2.5l4.6-5.6
			c0.8-0.9,0.7-2.3-0.2-3.1l-4.8-4.8c-0.8-0.8-2.2-0.9-3.1-0.2l-5.5,4.6c-0.7,0.6-1.7,0.7-2.5,0.3c-1.2-0.6-2.4-1.1-3.6-1.6
			c-0.8-0.3-1.4-1-1.5-1.9l-0.8-7.1c-0.1-1.2-1.1-2.1-2.3-2.1h-6.9c-1.2,0-2.2,0.9-2.3,2.1l-0.8,7.1c-0.1,0.9-0.7,1.6-1.5,1.9
			c-1.2,0.4-2.4,1-3.6,1.5c-0.8,0.4-1.8,0.3-2.5-0.3l-5.5-4.5c-0.9-0.8-2.3-0.7-3.1,0.2l-4.8,4.8c-0.8,0.8-0.9,2.2-0.2,3.1l4.5,5.6
			c0.6,0.7,0.7,1.6,0.3,2.4c-0.6,1.2-1.1,2.4-1.5,3.6c-0.3,0.8-1.1,1.4-1.9,1.5l-7.1,0.8c-1.2,0.1-2.1,1.1-2.1,2.3v6.9
			c0,1.2,0.9,2.2,2.1,2.3l7.1,0.8C408.6,266.7,409.3,267.2,409.6,268.1z M409.2,266.7"/>
	</g>
	<g class="st1">
		<g>
			<linearGradient id="SVGID_1_" gradientUnits="userSpaceOnUse" x1="363.8866" y1="162.3778" x2="444.4124" y2="276.3921">
				<stop  offset="0" style="stop-color:#23DEEA"/>
				<stop  offset="1" style="stop-color:#0CABB5"/>
				<stop  offset="1" style="stop-color:#01608A"/>
			</linearGradient>
			<ellipse class="st3" cx="365.4" cy="164.5" rx="28.3" ry="29"/>
		</g>
		<g>
			<linearGradient id="SVGID_2_" gradientUnits="userSpaceOnUse" x1="327.6513" y1="188.7333" x2="407.7826" y2="302.189">
				<stop  offset="0" style="stop-color:#23DEEA"/>
				<stop  offset="1" style="stop-color:#0CABB5"/>
				<stop  offset="1" style="stop-color:#01608A"/>
			</linearGradient>
			<path class="st4" d="M421.3,221.2c1.3-0.3,2.3-1.5,2.3-2.8v-9.1c0-12.4-9.9-22.4-22.2-22.4h-9.9c-0.9,0-1.6,0.4-2.1,1.1
				c-5.1,7.4-13.7,12.3-23.4,12.3c-9.7,0-18.2-4.9-23.3-12.3c-0.5-0.7-1.3-1.2-2.2-1.2h-10.3c-12.3,0-22.2,10-22.2,22.4v66.8
				c0,12.4,9.9,22.4,22.2,22.4h71.3c3,0,5.9-0.6,8.5-1.7c1.3-0.6,1.4-2.4,0.2-3.2c-11.6-6.7-19.5-19.5-19.5-34.1
				C390.6,240.6,403.8,224.8,421.3,221.2z"/>
		</g>
	</g>
</g>
<g class="st0">
	<linearGradient id="SVGID_3_" gradientUnits="userSpaceOnUse" x1="323.4824" y1="9.3821" x2="27.822" y2="377.1094">
		<stop  offset="0" style="stop-color:#76DCE3;stop-opacity:0.4"/>
		<stop  offset="1" style="stop-color:#FFFFFF;stop-opacity:0.9"/>
	</linearGradient>
	<path class="st5" d="M329.8,400H10.7c-5.8,0-10.5-4.7-10.5-10.5V10.4C0.2,4.7,4.9,0,10.7,0h319.1c5.8,0,10.5,4.7,10.5,10.5v379.1
		C340.2,395.3,335.6,400,329.8,400z"/>
	<g class="st1">
		<linearGradient id="SVGID_4_" gradientUnits="userSpaceOnUse" x1="-11.6983" y1="381.9157" x2="352.1766" y2="18.0408">
			<stop  offset="0" style="stop-color:#0BD9E8"/>
			<stop  offset="1" style="stop-color:#F6FEFE"/>
			<stop  offset="1" style="stop-color:#FFFFFF"/>
		</linearGradient>
		<path class="st6" d="M329.8,0.5c5.5,0,10,4.5,10,10v379.1c0,5.5-4.5,10-10,10H10.7c-5.5,0-10-4.5-10-10V10.4c0-5.5,4.5-10,10-10
			H329.8 M329.8,0H10.7C4.9,0,0.2,4.7,0.2,10.4v379.1c0,5.8,4.7,10.5,10.5,10.5h319.1c5.8,0,10.5-4.7,10.5-10.5V10.4
			C340.2,4.7,335.6,0,329.8,0L329.8,0z"/>
	</g>
</g>
<g class="st0">
	<linearGradient id="SVGID_5_" gradientUnits="userSpaceOnUse" x1="323.4824" y1="9.3821" x2="27.822" y2="377.1094">
		<stop  offset="0" style="stop-color:#76DCE3"/>
		<stop  offset="1" style="stop-color:#FFFFFF;stop-opacity:0.9"/>
	</linearGradient>
	<path class="st7" d="M329.8,400H10.7c-5.8,0-10.5-4.7-10.5-10.5V10.4C0.2,4.7,4.9,0,10.7,0h319.1c5.8,0,10.5,4.7,10.5,10.5v379.1
		C340.2,395.3,335.6,400,329.8,400z"/>
	<g class="st1">
		<linearGradient id="SVGID_6_" gradientUnits="userSpaceOnUse" x1="-11.6983" y1="381.9157" x2="352.1766" y2="18.0408">
			<stop  offset="0" style="stop-color:#0BD9E8"/>
			<stop  offset="1" style="stop-color:#F6FEFE"/>
			<stop  offset="1" style="stop-color:#FFFFFF"/>
		</linearGradient>
		<path class="st8" d="M329.8,0.5c5.5,0,10,4.5,10,10v379.1c0,5.5-4.5,10-10,10H10.7c-5.5,0-10-4.5-10-10V10.4c0-5.5,4.5-10,10-10
			H329.8 M329.8,0H10.7C4.9,0,0.2,4.7,0.2,10.4v379.1c0,5.8,4.7,10.5,10.5,10.5h319.1c5.8,0,10.5-4.7,10.5-10.5V10.4
			C340.2,4.7,335.6,0,329.8,0L329.8,0z"/>
	</g>
</g>
<g class="st0">
	<g class="st1">
		<path class="st2" d="M129.4,119.5H97.6c-3.4,0-6.1,2.7-6.1,6.1v19.8c0,3.4,2.7,6.1,6.1,6.1h31.8c3.4,0,6.1-2.7,6.1-6.1v-19.8
			C135.5,122.2,132.8,119.5,129.4,119.5z"/>
		<path class="st2" d="M127,90.2c0-3.1-2.6-5.7-5.7-5.7h-14.6c-3.1,0-5.7,2.5-5.7,5.7v26.1h26V90.2z"/>
		<path class="st2" d="M101,241.8c0,3.1,2.6,5.7,5.7,5.7h14.6c3.1,0,5.7-2.5,5.7-5.7v-87.8h-26V241.8z"/>
		<path class="st2" d="M184.5,90.2c0-3.1-2.6-5.7-5.7-5.7h-14.6c-3.1,0-5.7,2.5-5.7,5.7v97.7h26V90.2z"/>
		<path class="st2" d="M158.5,241.8c0,3.1,2.6,5.7,5.7,5.7h14.6c3.1,0,5.7-2.5,5.7-5.7v-16.2h-26V241.8z"/>
		<path class="st2" d="M216,241.8c0,3.1,2.6,5.7,5.7,5.7h14.6c3.1,0,5.7-2.5,5.7-5.7v-66.9h-26V241.8z"/>
		<path class="st2" d="M242,90.2c0-3.1-2.6-5.7-5.7-5.7h-14.6c-3.1,0-5.7,2.5-5.7,5.7v47h26V90.2z"/>
		<path class="st2" d="M187.4,190.5h-31.8c-3.4,0-6.1,2.7-6.1,6.1v19.8c0,3.4,2.7,6.1,6.1,6.1h31.8c3.4,0,6.1-2.7,6.1-6.1v-19.8
			C193.5,193.2,190.8,190.5,187.4,190.5z"/>
		<path class="st2" d="M244.4,139.5h-31.8c-3.4,0-6.1,2.7-6.1,6.1v19.8c0,3.4,2.7,6.1,6.1,6.1h31.8c3.4,0,6.1-2.7,6.1-6.1v-19.8
			C250.5,142.2,247.8,139.5,244.4,139.5z"/>
	</g>
	<linearGradient id="SVGID_7_" gradientUnits="userSpaceOnUse" x1="111.0754" y1="118.5152" x2="111.7967" y2="147.3668">
		<stop  offset="0" style="stop-color:#14B4D7"/>
		<stop  offset="0.7793" style="stop-color:#05729A"/>
		<stop  offset="1" style="stop-color:#01608A"/>
	</linearGradient>
	<path class="st9" d="M127.4,151.5H95.6c-3.4,0-6.1-2.7-6.1-6.1v-19.8c0-3.4,2.7-6.1,6.1-6.1h31.8c3.4,0,6.1,2.7,6.1,6.1v19.8
		C133.5,148.8,130.8,151.5,127.4,151.5z"/>
	<g class="st1">
		<g>
			<linearGradient id="SVGID_8_" gradientUnits="userSpaceOnUse" x1="111.5136" y1="83.7409" x2="112.3137" y2="115.7455">
				<stop  offset="0" style="stop-color:#23DEEA"/>
				<stop  offset="1" style="stop-color:#0CABB5"/>
				<stop  offset="1" style="stop-color:#01608A"/>
			</linearGradient>
			<path class="st10" d="M125,116.3V90.2c0-3.1-2.6-5.7-5.7-5.7h-14.6c-3.1,0-5.7,2.5-5.7,5.7v26.1H125z"/>
		</g>
		<g>
			<linearGradient id="SVGID_9_" gradientUnits="userSpaceOnUse" x1="110.852" y1="152.071" x2="113.1779" y2="245.107">
				<stop  offset="0" style="stop-color:#23DEEA"/>
				<stop  offset="1" style="stop-color:#0CABB5"/>
				<stop  offset="1" style="stop-color:#01608A"/>
			</linearGradient>
			<path class="st11" d="M99,154.1v87.8c0,3.1,2.6,5.7,5.7,5.7h14.6c3.1,0,5.7-2.5,5.7-5.7v-87.8H99z"/>
		</g>
	</g>
	<g class="st1">
		<g>
			<linearGradient id="SVGID_10_" gradientUnits="userSpaceOnUse" x1="168.0872" y1="82.4645" x2="170.6592" y2="185.3443">
				<stop  offset="0" style="stop-color:#23DEEA"/>
				<stop  offset="1" style="stop-color:#0CABB5"/>
				<stop  offset="1" style="stop-color:#01608A"/>
			</linearGradient>
			<path class="st12" d="M182.5,187.9V90.2c0-3.1-2.6-5.7-5.7-5.7h-14.6c-3.1,0-5.7,2.5-5.7,5.7v97.7H182.5z"/>
		</g>
		<g>
			<linearGradient id="SVGID_11_" gradientUnits="userSpaceOnUse" x1="169.2784" y1="224.9084" x2="169.8324" y2="247.0692">
				<stop  offset="0" style="stop-color:#23DEEA"/>
				<stop  offset="1" style="stop-color:#0CABB5"/>
				<stop  offset="1" style="stop-color:#01608A"/>
			</linearGradient>
			<path class="st13" d="M156.5,225.6v16.2c0,3.1,2.6,5.7,5.7,5.7h14.6c3.1,0,5.7-2.5,5.7-5.7v-16.2H156.5z"/>
		</g>
	</g>
	<g class="st1">
		<g>
			<linearGradient id="SVGID_12_" gradientUnits="userSpaceOnUse" x1="226.1222" y1="173.3152" x2="227.9313" y2="245.6793">
				<stop  offset="0" style="stop-color:#23DEEA"/>
				<stop  offset="1" style="stop-color:#0CABB5"/>
				<stop  offset="1" style="stop-color:#01608A"/>
			</linearGradient>
			<path class="st14" d="M214,174.9v66.9c0,3.1,2.6,5.7,5.7,5.7h14.6c3.1,0,5.7-2.5,5.7-5.7v-66.9H214z"/>
		</g>
		<g>
			<linearGradient id="SVGID_13_" gradientUnits="userSpaceOnUse" x1="226.2434" y1="83.3686" x2="227.5603" y2="136.0452">
				<stop  offset="0" style="stop-color:#23DEEA"/>
				<stop  offset="1" style="stop-color:#0CABB5"/>
				<stop  offset="1" style="stop-color:#01608A"/>
			</linearGradient>
			<path class="st15" d="M240,137.2v-47c0-3.1-2.6-5.7-5.7-5.7h-14.6c-3.1,0-5.7,2.5-5.7,5.7v47H240z"/>
		</g>
	</g>
	<linearGradient id="SVGID_14_" gradientUnits="userSpaceOnUse" x1="169.0754" y1="189.5152" x2="169.7967" y2="218.3668">
		<stop  offset="0" style="stop-color:#14B4D7"/>
		<stop  offset="0.7793" style="stop-color:#05729A"/>
		<stop  offset="1" style="stop-color:#01608A"/>
	</linearGradient>
	<path class="st16" d="M185.4,222.5h-31.8c-3.4,0-6.1-2.7-6.1-6.1v-19.8c0-3.4,2.7-6.1,6.1-6.1h31.8c3.4,0,6.1,2.7,6.1,6.1v19.8
		C191.5,219.8,188.8,222.5,185.4,222.5z"/>
	<linearGradient id="SVGID_15_" gradientUnits="userSpaceOnUse" x1="226.0754" y1="138.5152" x2="226.7967" y2="167.3668">
		<stop  offset="0" style="stop-color:#14B4D7"/>
		<stop  offset="0.7793" style="stop-color:#05729A"/>
		<stop  offset="1" style="stop-color:#01608A"/>
	</linearGradient>
	<path class="st17" d="M242.4,171.5h-31.8c-3.4,0-6.1-2.7-6.1-6.1v-19.8c0-3.4,2.7-6.1,6.1-6.1h31.8c3.4,0,6.1,2.7,6.1,6.1v19.8
		C248.5,168.8,245.8,171.5,242.4,171.5z"/>
</g>
<g class="st0">
	<g class="st1">
		<path class="st2" d="M231.6,232.5H103.4c-1.6,0-2.9,1.3-2.9,2.9v9.3c0,1.6,1.3,2.9,2.9,2.9h128.3c1.6,0,2.9-1.3,2.9-2.9v-9.3
			C234.5,233.8,233.2,232.5,231.6,232.5z"/>
		<path class="st2" d="M162.3,114.5c1.2,0,2.2-1,2.2-2.2v-10.6c0-1.2-1-2.2-2.2-2.2H87.7c-1.2,0-2.2,1-2.2,2.2v10.6
			c0,1.2,1,2.2,2.2,2.2H162.3z"/>
		<path class="st2" d="M243.7,121.5h-18.5l-43.7,69l-6.3-4.5l0,0l-17-11.8l-20.7,16.2c0,0.2,0,0.4,0,0.5c0,6.9-5.6,12.5-12.5,12.5
			s-12.5-5.6-12.5-12.5s5.6-12.5,12.5-12.5c1,0,2,0.1,3,0.4l22-17.3l7.5-6.5l19.2,13.7l30.4-47.2H91.3c-2.7,0-4.8,2.2-4.8,4.8v87.3
			c0,2.7,2.2,4.8,4.8,4.8h152.3c2.7,0,4.8-2.2,4.8-4.8v-87.3C248.5,123.7,246.3,121.5,243.7,121.5z"/>
		<polygon class="st2" points="232.9,109.2 242.5,115.5 242.5,83.5 210.5,94.5 220.4,101 207.2,121.5 225.2,121.5 		"/>
	</g>
	<linearGradient id="SVGID_16_" gradientUnits="userSpaceOnUse" x1="220.9175" y1="240.834" x2="118.7871" y2="239.2688">
		<stop  offset="0" style="stop-color:#14B4D7"/>
		<stop  offset="0.7793" style="stop-color:#05729A"/>
		<stop  offset="1" style="stop-color:#01608A"/>
	</linearGradient>
	<path class="st18" d="M230.6,247.5H102.4c-1.6,0-2.9-1.3-2.9-2.9v-9.3c0-1.6,1.3-2.9,2.9-2.9h128.3c1.6,0,2.9,1.3,2.9,2.9v9.3
		C233.5,246.2,232.2,247.5,230.6,247.5z"/>
	<linearGradient id="SVGID_17_" gradientUnits="userSpaceOnUse" x1="157.0623" y1="105.7284" x2="96.0188" y2="108.0762">
		<stop  offset="0" style="stop-color:#14B4D7"/>
		<stop  offset="0.7793" style="stop-color:#05729A"/>
		<stop  offset="1" style="stop-color:#01608A"/>
	</linearGradient>
	<path class="st19" d="M161.3,114.5H86.7c-1.2,0-2.2-1-2.2-2.2v-10.6c0-1.2,1-2.2,2.2-2.2h74.6c1.2,0,2.2,1,2.2,2.2v10.6
		C163.5,113.5,162.5,114.5,161.3,114.5z"/>
	<g class="st1">
		
			<linearGradient id="SVGID_18_" gradientUnits="userSpaceOnUse" x1="168.7585" y1="124.8353" x2="163.2802" y2="201.1397" gradientTransform="matrix(1 -4.566830e-04 4.566830e-04 1 -9.361157e-02 7.696021e-02)">
			<stop  offset="0" style="stop-color:#23DEEA"/>
			<stop  offset="1" style="stop-color:#0CABB5"/>
			<stop  offset="1" style="stop-color:#01608A"/>
		</linearGradient>
		<path class="st20" d="M241.7,121.5l-18.5,0l-43.6,69l-6.3-4.5l0,0l-17-11.8l-20.7,16.2c0,0.2,0,0.4,0,0.5
			c0,6.9-5.6,12.5-12.5,12.5c-6.9,0-12.5-5.6-12.5-12.5s5.6-12.5,12.5-12.5c1,0,2,0.1,3,0.4l22-17.3l7.5-6.5l19.2,13.6l30.4-47.2
			l-115.8,0.1c-2.7,0-4.8,2.2-4.8,4.8l0,87.3c0,2.7,2.2,4.8,4.8,4.8l152.3-0.1c2.7,0,4.8-2.2,4.8-4.8l0-87.3
			C246.5,123.6,244.3,121.5,241.7,121.5z"/>
	</g>
	<linearGradient id="SVGID_19_" gradientUnits="userSpaceOnUse" x1="235.2668" y1="90.5306" x2="214.1364" y2="121.835">
		<stop  offset="0" style="stop-color:#14B4D7"/>
		<stop  offset="0.7793" style="stop-color:#05729A"/>
		<stop  offset="1" style="stop-color:#01608A"/>
	</linearGradient>
	<polygon class="st21" points="241.5,83.5 209.5,94.5 219.4,101 206.2,121.5 224.2,121.5 231.9,109.2 241.5,115.5 	"/>
</g>
<g class="st0">
	<g class="st1">
		<g>
			<path class="st2" d="M232.3,207c0-0.4-0.2-0.8-0.5-1.1l-108-108c-2.2-2.2-5.8-2.2-8.1,0l-19.3,19.3c-2.2,2.2-2.2,5.8,0,7.9
				l108.1,108.1c0.3,0.3,0.7,0.5,1.1,0.5l30.7,6.7c1.4,0.3,3.1-0.4,2.9-2.9L232.3,207z M120.2,140.1l-19.3-19.3l18.5-18.5l19.3,19.3
				L120.2,140.1z M209.9,229.1l18.4-18.4l4.1,23.2L209.9,229.1z"/>
		</g>
		<g>
			<path class="st2" d="M100.6,206.5c-7.5,7.5-7.5,19.6,0,27.1c7.5,7.5,19.6,7.5,27.1,0l34.8-34.8L135,172L100.6,206.5z
				 M119.9,209.9c-1.8,1.8-4.4,1.9-6,0.4c-1.5-1.5-1.4-4.2,0.4-6c1.8-1.8,2.1,2.1,6.8-1.2C121.1,203.1,121.7,208.1,119.9,209.9z
				 M151.6,195.8c1.2-1.2,1.4,1.4,4.5-0.8c0,0,0.4,3.3-0.8,4.5c-1.2,1.2-3,1.3-4,0.3C150.3,198.7,150.4,196.9,151.6,195.8z"/>
		</g>
		<g>
			<path class="st2" d="M247.4,120.5l-3.4-3.4l-4.8-4.8l-17.6-17.6l-4.8-4.8l-3.4-3.4c-1.4-1.4-3.8-1.4-5.2,0l-0.4,0.4
				c-1.4,1.4-1.4,3.8,0,5.2l3.4,3.4l-40.8,40.8l4.9,4.8l22.6,22l0,0l0,0l40.5-40.5l3.4,3.4c1.4,1.4,3.8,1.4,5.2,0l0.4-0.4
				C248.9,124.2,248.9,121.9,247.4,120.5z M204.1,147.7l-23.7-8.3l-2.3-0.8l38-38.3l17.6,17.6L204.1,147.7z"/>
		</g>
	</g>
	
		<linearGradient id="SVGID_20_" gradientUnits="userSpaceOnUse" x1="180.8711" y1="95.0435" x2="184.9965" y2="260.0586" gradientTransform="matrix(0.7071 -0.7071 0.7071 0.7071 -96.3817 167.0979)">
		<stop  offset="0" style="stop-color:#14B4D7"/>
		<stop  offset="0.7793" style="stop-color:#05729A"/>
		<stop  offset="1" style="stop-color:#01608A"/>
	</linearGradient>
	<path class="st22" d="M112.5,97.9l-19.3,19.3c-2.2,2.2-2.2,5.8,0,7.9l108.1,108.1c0.3,0.3,0.7,0.5,1.1,0.5l30.7,6.7
		c1.4,0.3,3.1-0.4,2.9-2.9l-6.8-30.6c0-0.4-0.2-0.8-0.5-1.1l-108-108C118.3,95.6,114.7,95.6,112.5,97.9z M97.6,120.8l18.5-18.5
		l19.3,19.3l-18.5,18.5L97.6,120.8z M229.2,233.8l-22.5-4.7l18.4-18.4L229.2,233.8z"/>
	<g class="st1">
		<g>
			<linearGradient id="SVGID_21_" gradientUnits="userSpaceOnUse" x1="147.4538" y1="90.0909" x2="137.2854" y2="144.8875">
				<stop  offset="0" style="stop-color:#23DEEA"/>
				<stop  offset="1" style="stop-color:#0CABB5"/>
				<stop  offset="1" style="stop-color:#01608A"/>
			</linearGradient>
			<path class="st23" d="M97.3,206.5c-7.5,7.5-7.5,19.6,0,27.1c7.5,7.5,19.6,7.5,27.1,0l34.8-34.8L131.8,172L97.3,206.5z
				 M116.7,209.9c-1.8,1.8-4.4,1.9-6,0.4c-1.5-1.5-1.4-4.2,0.4-6c1.8-1.8,2.1,2.1,6.8-1.2C117.9,203.1,118.4,208.1,116.7,209.9z
				 M148.3,195.8c1.2-1.2,1.4,1.4,4.5-0.8c0,0,0.4,3.3-0.8,4.5c-1.2,1.2-3,1.3-4,0.3C147,198.7,147.1,196.9,148.3,195.8z"/>
		</g>
		<g>
			<linearGradient id="SVGID_22_" gradientUnits="userSpaceOnUse" x1="211.4257" y1="101.962" x2="201.2572" y2="156.7585">
				<stop  offset="0" style="stop-color:#23DEEA"/>
				<stop  offset="1" style="stop-color:#0CABB5"/>
				<stop  offset="1" style="stop-color:#01608A"/>
			</linearGradient>
			<path class="st24" d="M244.2,120.5l-3.4-3.4l-4.8-4.8l-17.6-17.6l-4.8-4.8l-3.4-3.4c-1.4-1.4-3.8-1.4-5.2,0l-0.4,0.4
				c-1.4,1.4-1.4,3.8,0,5.2l3.4,3.4l-40.8,40.8l4.9,4.8l0,0l22.6,22l0,0l0,0l40.5-40.5l3.4,3.4c1.4,1.4,3.8,1.4,5.2,0l0.4-0.4
				C245.6,124.2,245.6,121.9,244.2,120.5z M200.8,147.7l-23.7-8.3l-2.3-0.8l38-38.3l17.6,17.6L200.8,147.7z"/>
		</g>
	</g>
</g>
<g class="st0">
	<g class="st1">
		<g>
			<ellipse class="st2" cx="160.3" cy="113.5" rx="28.3" ry="29"/>
		</g>
		<g>
			<path class="st2" d="M217,170.1c0.9-0.2,1.5-1,1.5-1.9v-9.9c0-12.4-9.9-22.4-22.2-22.4h-10.2c-0.6,0-1.2,0.3-1.6,0.9
				c-5.1,7.6-13.8,12.6-23.6,12.6s-18.4-5-23.6-12.6c-0.4-0.5-1-0.9-1.6-0.9h-10.7c-12.3,0-22.2,10-22.2,22.4v66.8
				c0,12.4,9.9,22.4,22.2,22.4h71.3c2.9,0,5.6-0.6,8.1-1.6c1.5-0.6,1.7-2.6,0.3-3.4c-11.5-6.7-19.2-19.4-19.2-33.9
				C185.5,189.3,199.1,173.3,217,170.1z"/>
		</g>
	</g>
	<g class="st1">
		<path class="st2" d="M217.8,210c0-2.9,1-5.3,3-7.3s4.4-3,7.3-3c2.9,0,5.3,1,7.3,3c2,2,3,4.4,3,7.3c0,2.9-1,5.4-3,7.4
			c-2,2-4.4,3-7.3,3c-2.9,0-5.3-1-7.3-3C218.8,215.3,217.8,212.9,217.8,210L217.8,210z M203.6,218.1c0.4,1.2,0.9,2.4,1.5,3.6
			c0.4,0.8,0.3,1.8-0.3,2.5l-4.5,5.5c-0.7,0.9-0.7,2.3,0.2,3.1l4.7,4.7c0.8,0.8,2.2,0.9,3.1,0.2l5.5-4.5c0.7-0.6,1.7-0.7,2.5-0.3
			c1.2,0.6,2.4,1.1,3.7,1.5c0.8,0.3,1.4,1.1,1.5,1.9l0.8,7.1c0.1,1.2,1.1,2.1,2.3,2.1h6.9c1.2,0,2.2-0.9,2.3-2.1l0.8-7.1
			c0.1-0.9,0.7-1.6,1.5-1.9c1.2-0.4,2.4-1,3.7-1.6c0.8-0.4,1.8-0.3,2.5,0.3l5.5,4.5c0.9,0.8,2.3,0.7,3.1-0.1l4.8-4.8
			c0.8-0.8,0.9-2.2,0.2-3.1l-4.5-5.5c-0.6-0.7-0.7-1.7-0.3-2.5c0.6-1.2,1.1-2.4,1.5-3.6c0.3-0.8,1-1.4,1.9-1.5l7.1-0.8
			c1.2-0.1,2.1-1.1,2.1-2.3v-6.9c0-1.2-0.9-2.2-2.1-2.3l-7.1-0.8c-0.9-0.1-1.6-0.7-1.9-1.5c-0.4-1.2-1-2.4-1.5-3.6
			c-0.4-0.8-0.3-1.8,0.3-2.5l4.6-5.6c0.8-0.9,0.7-2.3-0.2-3.1l-4.8-4.8c-0.8-0.8-2.2-0.9-3.1-0.2l-5.5,4.6c-0.7,0.6-1.7,0.7-2.5,0.3
			c-1.2-0.6-2.4-1.1-3.6-1.6c-0.8-0.3-1.4-1-1.5-1.9l-0.8-7.1c-0.1-1.2-1.1-2.1-2.3-2.1h-6.9c-1.2,0-2.2,0.9-2.3,2.1l-0.8,7.1
			c-0.1,0.9-0.7,1.6-1.5,1.9c-1.2,0.4-2.4,1-3.6,1.5c-0.8,0.4-1.8,0.3-2.5-0.3l-5.5-4.5c-0.9-0.8-2.3-0.7-3.1,0.2l-4.8,4.8
			c-0.8,0.8-0.9,2.2-0.2,3.1l4.5,5.6c0.6,0.7,0.7,1.6,0.3,2.4c-0.6,1.2-1.1,2.4-1.5,3.6c-0.3,0.8-1.1,1.4-1.9,1.5l-7.1,0.8
			c-1.2,0.1-2.1,1.1-2.1,2.3v6.9c0,1.2,0.9,2.2,2.1,2.3l7.1,0.8C202.6,216.7,203.3,217.2,203.6,218.1z M203.2,216.7"/>
	</g>
	<g class="st1">
		<path d="M216.8,210c0-2.9,1-5.3,3-7.3s4.4-3,7.3-3c2.9,0,5.3,1,7.3,3c2,2,3,4.4,3,7.3c0,2.9-1,5.4-3,7.4c-2,2-4.4,3-7.3,3
			c-2.9,0-5.3-1-7.3-3C217.8,215.3,216.8,212.9,216.8,210L216.8,210z M202.6,218.1c0.4,1.2,0.9,2.4,1.5,3.6c0.4,0.8,0.3,1.8-0.3,2.5
			l-4.5,5.5c-0.7,0.9-0.7,2.3,0.2,3.1l4.7,4.7c0.8,0.8,2.2,0.9,3.1,0.2l5.5-4.5c0.7-0.6,1.7-0.7,2.5-0.3c1.2,0.6,2.4,1.1,3.7,1.5
			c0.8,0.3,1.4,1.1,1.5,1.9l0.8,7.1c0.1,1.2,1.1,2.1,2.3,2.1h6.9c1.2,0,2.2-0.9,2.3-2.1l0.8-7.1c0.1-0.9,0.7-1.6,1.5-1.9
			c1.2-0.4,2.4-1,3.7-1.6c0.8-0.4,1.8-0.3,2.5,0.3l5.5,4.5c0.9,0.8,2.3,0.7,3.1-0.1l4.8-4.8c0.8-0.8,0.9-2.2,0.2-3.1l-4.5-5.5
			c-0.6-0.7-0.7-1.7-0.3-2.5c0.6-1.2,1.1-2.4,1.5-3.6c0.3-0.8,1-1.4,1.9-1.5l7.1-0.8c1.2-0.1,2.1-1.1,2.1-2.3v-6.9
			c0-1.2-0.9-2.2-2.1-2.3l-7.1-0.8c-0.9-0.1-1.6-0.7-1.9-1.5c-0.4-1.2-1-2.4-1.5-3.6c-0.4-0.8-0.3-1.8,0.3-2.5l4.6-5.6
			c0.8-0.9,0.7-2.3-0.2-3.1l-4.8-4.8c-0.8-0.8-2.2-0.9-3.1-0.2l-5.5,4.6c-0.7,0.6-1.7,0.7-2.5,0.3c-1.2-0.6-2.4-1.1-3.6-1.6
			c-0.8-0.3-1.4-1-1.5-1.9l-0.8-7.1c-0.1-1.2-1.1-2.1-2.3-2.1h-6.9c-1.2,0-2.2,0.9-2.3,2.1l-0.8,7.1c-0.1,0.9-0.7,1.6-1.5,1.9
			c-1.2,0.4-2.4,1-3.6,1.5c-0.8,0.4-1.8,0.3-2.5-0.3l-5.5-4.5c-0.9-0.8-2.3-0.7-3.1,0.2l-4.8,4.8c-0.8,0.8-0.9,2.2-0.2,3.1l4.5,5.6
			c0.6,0.7,0.7,1.6,0.3,2.4c-0.6,1.2-1.1,2.4-1.5,3.6c-0.3,0.8-1.1,1.4-1.9,1.5l-7.1,0.8c-1.2,0.1-2.1,1.1-2.1,2.3v6.9
			c0,1.2,0.9,2.2,2.1,2.3l7.1,0.8C201.6,216.7,202.3,217.2,202.6,218.1z M202.2,216.7"/>
	</g>
	<g class="st1">
		<g>
			<linearGradient id="SVGID_23_" gradientUnits="userSpaceOnUse" x1="156.9088" y1="112.3778" x2="237.4346" y2="226.392">
				<stop  offset="0" style="stop-color:#23DEEA"/>
				<stop  offset="1" style="stop-color:#0CABB5"/>
				<stop  offset="1" style="stop-color:#01608A"/>
			</linearGradient>
			<ellipse class="st25" cx="158.4" cy="114.5" rx="28.3" ry="29"/>
		</g>
		<g>
			<linearGradient id="SVGID_24_" gradientUnits="userSpaceOnUse" x1="120.6736" y1="138.7333" x2="200.8049" y2="252.189">
				<stop  offset="0" style="stop-color:#23DEEA"/>
				<stop  offset="1" style="stop-color:#0CABB5"/>
				<stop  offset="1" style="stop-color:#01608A"/>
			</linearGradient>
			<path class="st26" d="M214.3,171.2c1.3-0.3,2.3-1.5,2.3-2.8v-9.1c0-12.4-9.9-22.4-22.2-22.4h-9.9c-0.9,0-1.6,0.4-2.1,1.1
				c-5.1,7.4-13.7,12.3-23.4,12.3c-9.7,0-18.2-4.9-23.3-12.3c-0.5-0.7-1.3-1.2-2.2-1.2h-10.3c-12.3,0-22.2,10-22.2,22.4v66.8
				c0,12.4,9.9,22.4,22.2,22.4h71.3c3,0,5.9-0.6,8.5-1.7c1.3-0.6,1.4-2.4,0.2-3.2c-11.6-6.7-19.5-19.5-19.5-34.1
				C183.6,190.6,196.8,174.8,214.3,171.2z"/>
		</g>
	</g>
</g>
<g class="st0">
	<g class="st1">
		<path class="st27" d="M137,227c0-0.1,0-0.1-0.1-0.2l-14.3-14.3c-0.3-0.3-0.8-0.3-1.1,0l-2.6,2.6c-0.3,0.3-0.3,0.8,0,1.1l14.3,14.3
			c0,0,0.1,0.1,0.1,0.1l4.1,0.9c0.2,0,0.4-0.1,0.4-0.4L137,227z M122.2,218.1l-2.6-2.6l2.4-2.4l2.6,2.6L122.2,218.1z M134,229.9
			l2.4-2.4l0.5,3.1L134,229.9z"/>
	</g>
	<g class="st1">
		<path class="st27" d="M119.6,226.9c-1,1-1,2.6,0,3.6s2.6,1,3.6,0l4.6-4.6l-3.6-3.5L119.6,226.9z M122.1,227.3
			c-0.2,0.2-0.6,0.3-0.8,0.1c-0.2-0.2-0.2-0.6,0.1-0.8c0.2-0.2,0.3,0.3,0.9-0.2C122.3,226.4,122.4,227.1,122.1,227.3z M126.3,225.5
			c0.2-0.2,0.2,0.2,0.6-0.1c0,0,0,0.4-0.1,0.6c-0.2,0.2-0.4,0.2-0.5,0C126.1,225.9,126.2,225.6,126.3,225.5z"/>
	</g>
	<g class="st1">
		<path class="st27" d="M139,215.5l-0.4-0.4l-0.6-0.6l-2.3-2.3l-0.6-0.6l-0.4-0.4c-0.2-0.2-0.5-0.2-0.7,0l0,0
			c-0.2,0.2-0.2,0.5,0,0.7l0.4,0.4l-5.4,5.4l0.7,0.6l3,2.9l0,0l0,0l5.4-5.4l0.4,0.4c0.2,0.2,0.5,0.2,0.7,0l0,0
			C139.2,216,139.2,215.7,139,215.5z M133.3,219.1l-3.1-1.1l-0.3-0.1l5-5.1l2.3,2.3L133.3,219.1z"/>
	</g>
</g>
<g class="st0">
	<g class="st1">
		<path class="st28" d="M164.3,269.1h-4.2c-0.4,0-0.8,0.4-0.8,0.8v2.6c0,0.4,0.4,0.8,0.8,0.8h4.2c0.4,0,0.8-0.4,0.8-0.8v-2.6
			C165.1,269.5,164.8,269.1,164.3,269.1z"/>
	</g>
	<g class="st1">
		<path class="st28" d="M164,265.3c0-0.4-0.3-0.7-0.7-0.7h-1.9c-0.4,0-0.7,0.3-0.7,0.7v3.4h3.4V265.3z"/>
	</g>
	<g class="st1">
		<path class="st28" d="M160.6,285.1c0,0.4,0.3,0.7,0.7,0.7h1.9c0.4,0,0.7-0.3,0.7-0.7v-11.5h-3.4V285.1z"/>
	</g>
	<g class="st1">
		<path class="st28" d="M171.5,265.3c0-0.4-0.3-0.7-0.7-0.7h-1.9c-0.4,0-0.7,0.3-0.7,0.7V278h3.4V265.3z"/>
	</g>
	<g class="st1">
		<path class="st28" d="M168.1,285.1c0,0.4,0.3,0.7,0.7,0.7h1.9c0.4,0,0.7-0.3,0.7-0.7v-2.1h-3.4V285.1z"/>
	</g>
	<g class="st1">
		<path class="st28" d="M175.6,285.1c0,0.4,0.3,0.7,0.7,0.7h1.9c0.4,0,0.7-0.3,0.7-0.7v-8.7h-3.4V285.1z"/>
	</g>
	<g class="st1">
		<path class="st28" d="M179,265.3c0-0.4-0.3-0.7-0.7-0.7h-1.9c-0.4,0-0.7,0.3-0.7,0.7v6.1h3.4V265.3z"/>
	</g>
	<g class="st1">
		<path class="st28" d="M171.9,278.4h-4.2c-0.4,0-0.8,0.4-0.8,0.8v2.6c0,0.4,0.4,0.8,0.8,0.8h4.2c0.4,0,0.8-0.4,0.8-0.8v-2.6
			C172.7,278.7,172.3,278.4,171.9,278.4z"/>
	</g>
	<g class="st1">
		<path class="st28" d="M179.3,271.7h-4.2c-0.4,0-0.8,0.4-0.8,0.8v2.6c0,0.4,0.4,0.8,0.8,0.8h4.2c0.4,0,0.8-0.4,0.8-0.8v-2.6
			C180.1,272.1,179.8,271.7,179.3,271.7z"/>
	</g>
</g>
<g class="st0">
	<g class="st1">
		<ellipse class="st27" cx="95.3" cy="260.7" rx="3.5" ry="3.6"/>
	</g>
	<g class="st1">
		<path class="st27" d="M100.8,276.8c-1.4-0.8-2.4-2.4-2.4-4.2c0-2.4,1.7-4.4,3.9-4.8c0.1,0,0.2-0.1,0.2-0.2v-1.2
			c0-1.5-1.2-2.8-2.8-2.8h-1.3c-0.1,0-0.2,0-0.2,0.1c-0.6,0.9-1.7,1.6-2.9,1.6s-2.3-0.6-2.9-1.6c0-0.1-0.1-0.1-0.2-0.1h-1.3
			c-1.5,0-2.8,1.2-2.8,2.8v8.3c0,1.5,1.2,2.8,2.8,2.8h8.9c0.4,0,0.7-0.1,1-0.2C101,277.1,101,276.9,100.8,276.8z"/>
	</g>
	<g class="st1">
		<path class="st27" d="M107.9,272l-0.9-0.1c-0.1,0-0.2-0.1-0.2-0.2c-0.1-0.2-0.1-0.3-0.2-0.4c0-0.1,0-0.2,0-0.3l0.6-0.7
			c0.1-0.1,0.1-0.3,0-0.4l-0.6-0.6c-0.1-0.1-0.3-0.1-0.4,0l-0.7,0.6c-0.1,0.1-0.2,0.1-0.3,0c-0.2-0.1-0.3-0.1-0.5-0.2
			c-0.1,0-0.2-0.1-0.2-0.2l-0.1-0.9c0-0.1-0.1-0.3-0.3-0.3h-0.9c-0.1,0-0.3,0.1-0.3,0.3l-0.1,0.9c0,0.1-0.1,0.2-0.2,0.2
			c-0.2,0.1-0.3,0.1-0.4,0.2c-0.1,0.1-0.2,0-0.3,0l-0.7-0.6c-0.1-0.1-0.3-0.1-0.4,0l-0.6,0.6c-0.1,0.1-0.1,0.3,0,0.4l0.6,0.7
			c0.1,0.1,0.1,0.2,0,0.3c-0.1,0.1-0.1,0.3-0.2,0.5c0,0.1-0.1,0.2-0.2,0.2l-0.9,0.1c-0.1,0-0.3,0.1-0.3,0.3v0.9
			c0,0.1,0.1,0.3,0.3,0.3l0.9,0.1c0.1,0,0.2,0.1,0.2,0.2c0.1,0.2,0.1,0.3,0.2,0.4c0.1,0.1,0,0.2,0,0.3l-0.6,0.7
			c-0.1,0.1-0.1,0.3,0,0.4l0.6,0.6c0.1,0.1,0.3,0.1,0.4,0l0.7-0.6c0.1-0.1,0.2-0.1,0.3,0c0.1,0.1,0.3,0.1,0.5,0.2
			c0.1,0,0.2,0.1,0.2,0.2l0.1,0.9c0,0.1,0.1,0.3,0.3,0.3h0.9c0.1,0,0.3-0.1,0.3-0.3l0.1-0.9c0-0.1,0.1-0.2,0.2-0.2
			c0.2-0.1,0.3-0.1,0.5-0.2c0.1,0,0.2,0,0.3,0l0.7,0.6c0.1,0.1,0.3,0.1,0.4,0l0.6-0.6c0.1-0.1,0.1-0.3,0-0.4l-0.6-0.7
			c-0.1-0.1-0.1-0.2,0-0.3c0.1-0.1,0.1-0.3,0.2-0.4c0-0.1,0.1-0.2,0.2-0.2l0.9-0.1c0.1,0,0.3-0.1,0.3-0.3v-0.9
			C108.1,272.1,108,272,107.9,272z M104.6,273.6c-0.2,0.2-0.5,0.4-0.9,0.4c-0.4,0-0.7-0.1-0.9-0.4c-0.3-0.3-0.4-0.6-0.4-0.9
			c0-0.4,0.1-0.7,0.4-0.9c0.2-0.2,0.5-0.4,0.9-0.4c0.4,0,0.7,0.1,0.9,0.4c0.2,0.2,0.4,0.5,0.4,0.9
			C105,273.1,104.9,273.4,104.6,273.6z"/>
	</g>
</g>
<g class="st0">
	<g class="st1">
		<path class="st29" d="M441,345c0-0.1,0-0.1-0.1-0.2l-14.3-14.3c-0.3-0.3-0.8-0.3-1.1,0l-2.6,2.6c-0.3,0.3-0.3,0.8,0,1.1l14.3,14.3
			c0,0,0.1,0.1,0.1,0.1l4.1,0.9c0.2,0,0.4-0.1,0.4-0.4L441,345z M426.2,336.1l-2.6-2.6l2.4-2.4l2.6,2.6L426.2,336.1z M438,347.9
			l2.4-2.4l0.5,3.1L438,347.9z"/>
	</g>
	<g class="st1">
		<path class="st29" d="M423.6,344.9c-1,1-1,2.6,0,3.6c1,1,2.6,1,3.6,0l4.6-4.6l-3.6-3.5L423.6,344.9z M426.1,345.3
			c-0.2,0.2-0.6,0.3-0.8,0.1c-0.2-0.2-0.2-0.6,0.1-0.8c0.2-0.2,0.3,0.3,0.9-0.2C426.3,344.4,426.4,345.1,426.1,345.3z M430.3,343.5
			c0.2-0.2,0.2,0.2,0.6-0.1c0,0,0,0.4-0.1,0.6c-0.2,0.2-0.4,0.2-0.5,0C430.1,343.9,430.2,343.6,430.3,343.5z"/>
	</g>
	<g class="st1">
		<path class="st29" d="M443,333.5l-0.4-0.4l-0.6-0.6l-2.3-2.3l-0.6-0.6l-0.4-0.4c-0.2-0.2-0.5-0.2-0.7,0l0,0
			c-0.2,0.2-0.2,0.5,0,0.7l0.4,0.4l-5.4,5.4l0.7,0.6l3,2.9l0,0l0,0l5.4-5.4l0.4,0.4c0.2,0.2,0.5,0.2,0.7,0l0,0
			C443.2,334,443.2,333.7,443,333.5z M437.3,337.1l-3.1-1.1l-0.3-0.1l5-5.1l2.3,2.3L437.3,337.1z"/>
	</g>
</g>
<g class="st0">
	<g class="st1">
		<path class="st30" d="M225,303.9h-15.8c-0.2,0-0.4,0.2-0.4,0.4v1.1c0,0.2,0.2,0.4,0.4,0.4H225c0.2,0,0.4-0.2,0.4-0.4v-1.1
			C225.4,304.1,225.2,303.9,225,303.9z"/>
	</g>
	<g class="st1">
		<path class="st30" d="M216.5,289.4c0.2,0,0.3-0.1,0.3-0.3v-1.3c0-0.2-0.1-0.3-0.3-0.3h-9.2c-0.2,0-0.3,0.1-0.3,0.3v1.3
			c0,0.2,0.1,0.3,0.3,0.3H216.5z"/>
	</g>
	<g class="st1">
		<path class="st30" d="M226.5,290.2h-2.3l-5.4,8.5l-0.8-0.6l0,0l-2.1-1.5l-2.6,2c0,0,0,0,0,0.1c0,0.9-0.7,1.5-1.5,1.5
			s-1.5-0.7-1.5-1.5s0.7-1.5,1.5-1.5c0.1,0,0.2,0,0.4,0l2.7-2.1l0.9-0.8l2.4,1.7l3.8-5.8h-14.3c-0.3,0-0.6,0.3-0.6,0.6v10.8
			c0,0.3,0.3,0.6,0.6,0.6h18.8c0.3,0,0.6-0.3,0.6-0.6v-10.8C227.1,290.5,226.9,290.2,226.5,290.2z"/>
	</g>
	<g class="st1">
		<polygon class="st30" points="225.2,288.7 226.4,289.5 226.4,285.5 222.4,286.9 223.7,287.7 222,290.2 224.3,290.2 		"/>
	</g>
</g>
<g class="st0">
	<g class="st1">
		<path class="st2" d="M430.9,327.4h-11.5c-0.7,0-1.2,0.5-1.2,1.2v9c0,0.7,0.5,1.2,1.2,1.2h11.5c0.7,0,1.2-0.5,1.2-1.2v-9
			C432.1,327.9,431.5,327.4,430.9,327.4z"/>
	</g>
	<g class="st1">
		<path class="st2" d="M446.9,327.4h-11.5c-0.7,0-1.2,0.5-1.2,1.2v9c0,0.7,0.5,1.2,1.2,1.2h11.5c0.7,0,1.2-0.5,1.2-1.2v-9
			C448.1,327.9,447.6,327.4,446.9,327.4z"/>
	</g>
	<g class="st1">
		<path class="st2" d="M430.9,340.7h-11.5c-0.7,0-1.2,0.5-1.2,1.2v9c0,0.7,0.5,1.2,1.2,1.2h11.5c0.7,0,1.2-0.5,1.2-1.2v-9
			C432.1,341.3,431.5,340.7,430.9,340.7z"/>
	</g>
	<g class="st1">
		<path class="st2" d="M446.9,340.7h-11.5c-0.7,0-1.2,0.5-1.2,1.2v9c0,0.7,0.5,1.2,1.2,1.2h11.5c0.7,0,1.2-0.5,1.2-1.2v-9
			C448.1,341.3,447.6,340.7,446.9,340.7z"/>
	</g>
</g>
<path class="st31" d="M439.1,348.4h-17c-1.1,0-2-0.9-2-2v-16c0-1.1,0.9-2,2-2h17c1.1,0,2,0.9,2,2v16
	C441.1,347.5,440.2,348.4,439.1,348.4z"/>
<g class="st0">
	<path class="st32" d="M122.4,218.5h-3.9c-0.6,0-1.1,0.5-1.1,1.1v17.9c0,0.6,0.5,1.1,1.1,1.1h3.9c0.6,0,1.1-0.5,1.1-1.1v-17.9
		C123.5,219,123,218.5,122.4,218.5z"/>
	<path class="st32" d="M137.4,218.5h-3.9c-0.6,0-1.1,0.5-1.1,1.1v17.9c0,0.6,0.5,1.1,1.1,1.1h3.9c0.6,0,1.1-0.5,1.1-1.1v-17.9
		C138.5,219,138,218.5,137.4,218.5z"/>
</g>
<path class="st33" d="M148.6,259.8l-14.8-8.5c-0.5-0.3-1.2,0.1-1.2,0.7V269c0,0.6,0.7,1,1.2,0.7l14.8-8.5
	C149.1,260.9,149.1,260.1,148.6,259.8z"/>
<linearGradient id="SVGID_25_" gradientUnits="userSpaceOnUse" x1="418.6304" y1="295.6956" x2="418.6304" y2="358.6956">
	<stop  offset="0" style="stop-color:#86F0FF"/>
	<stop  offset="1" style="stop-color:#009BB0"/>
</linearGradient>
<polygon class="st34" points="362.1,292.4 357.1,301.4 353.1,301.4 353.1,361.4 484.1,361.4 484.1,301.4 479.1,301.4 472.1,292.4 
	"/>
<g class="st0">
	<circle class="st35" cx="176.5" cy="162.5" r="6"/>
	<path class="st35" d="M183,168.5h-2c-1.1,1.2-2.7,2-4.5,2s-3.4-0.8-4.5-2h-2c-2.5,0-4.5,2-4.5,4.5v5c0,2.5,2,4.5,4.5,4.5h13
		c2.5,0,4.5-2,4.5-4.5v-5C187.5,170.5,185.5,168.5,183,168.5z"/>
</g>
</svg>
